<svg xmlns="http://www.w3.org/2000/svg" width="230" height="82"><rect x="1" y="1" width="228" height="80" rx="2" ry="2" fill="none" stroke="#eee" stroke-linejoin="round" stroke-width="2"/><text data-name="Google Play" x="-824.999" y="-6332" font-weight="700" fill="#fff" font-size="22" font-family="Montserrat">Apple Store</text><text data-name="Available On" x="71.677" y="31.11" font-size="14" font-family="Lato" font-weight="700" fill="#fff">Available On</text><path d="M49.02 29.03c4.23 0 6.92 4.04 6.92 4.04a8.317 8.317 0 00-4.11 7A7.794 7.794 0 0057 47.42s-4.08 9.57-8.67 9.57c-2.57 0-2.75-1.46-6.17-1.46-2.98 0-3.98 1.46-6.25 1.46-4.32 0-9.91-9.33-9.91-16.92 0-7.88 5.66-11.04 9.2-11.04 3.12 0 4.41 1.81 6.92 1.81 2.11 0 3.77-1.81 6.9-1.81zm-.72-8.04c.62 3.87-2.93 8.64-7.16 8.49-.63-4.92 3.94-8.23 7.16-8.49z" fill-rule="evenodd" fill="#fff"/></svg>